<?xml version="1.0" encoding="utf-8"?>
<!-- Uploaded to: SVG Repo, www.svgrepo.com, Generator: SVG Repo Mixer Tools -->
<svg width="800px" height="800px" viewBox="-20.77 0 257.23 257.23" xmlns="http://www.w3.org/2000/svg"><defs><style>.a{fill:#c5dbef;}.b{fill:#ffffff;}.c{fill:#211715;}.d{fill:#99d298;}.e{fill:#6dbf6b;}.f{fill:#f3736f;}.g{fill:#ffda71;}.h{fill:#5394cf;}</style></defs><path class="a" d="M127.432,84.242l-1.488-.048c-2.575-.084-6.262-.87-7.119-2.489-.7-1.327-.931-3.516-.836-6.454.462-14.205,1.139-26.9,1.723-40.984a13.048,13.048,0,0,1,3.11-7.911c.426-.5.9-1.081,1.481-1.874.694-.944,2.942-3.99,4.339-6.157l.094-.146.665.022,9.881.321.751.024.05.077c1.966,3.013,3.948,5.533,4.579,6.52.53.83.964,1.44,1.356,1.967a13.046,13.046,0,0,1,2.59,8.093c-.329,14.132-.479,26.807-.941,41.012-.11,3.393-.093,5.756-1.969,7.07-1.657,1.161-4.526,1.4-6.548,1.337Z"/><path class="b" d="M129.4,18.2c-2.23,0-2.02-1.569-2.012-1.809.088-3.119.24-7.14.267-7.991a2.043,2.043,0,0,1,2.136-2.223l9.881.321a2,2,0,0,1,1.991,2.224c-.092,2.834-.211,6.737-.256,8.125-.012.353-.037,1.742-2.126,1.674L129.4,18.2"/><path class="c" d="M138.011,19.834c1.373,2.089,2.894,4.067,4.311,6.124,1.355,1.967,2.9,3.868,3.528,6.211.721,2.678.3,5.649.239,8.392q-.094,4.512-.181,9.026c-.118,6.041-.237,12.081-.394,18.121q-.12,4.668-.273,9.334a17.586,17.586,0,0,1-.21,2.849c-.166.82-.294,1.166-.816,1.5-1.556.989-3.8.872-5.562.817q-2.514-.078-5.028-.163l-5.736-.186a23.445,23.445,0,0,1-4.679-.423,6.536,6.536,0,0,1-2.351-.929c.024.018-.028-.126-.043-.179a13.278,13.278,0,0,1-.323-1.385,45.6,45.6,0,0,1,.048-8.1c.22-6.078.484-12.153.758-18.229q.229-5.064.458-10.128.118-2.643.232-5.285a26.313,26.313,0,0,1,.332-4.543c.635-2.874,2.459-4.8,4.153-7.094,1.458-1.975,2.9-3.965,4.24-6.022,1.69-2.6-2.464-5.006-4.144-2.423-1.3,2-2.708,3.941-4.125,5.865-1.683,2.286-3.437,4.266-4.367,7.013-1.032,3.051-.855,6.439-.994,9.619q-.207,4.742-.425,9.483c-.3,6.6-.6,13.2-.847,19.809a76.061,76.061,0,0,0-.159,9.653c.213,2.346.716,4.694,2.783,6.094,3.409,2.31,8.132,1.964,12.072,2.092,4.042.131,8.3.642,12.317.042,2.448-.366,4.959-1.394,6.154-3.705,1.22-2.359,1.039-5.276,1.12-7.853.209-6.591.359-13.185.493-19.779q.112-5.529.219-11.059c.071-3.562.477-7.291.129-10.838-.617-6.306-5.449-11.066-8.785-16.139-1.69-2.57-5.848-.168-4.144,2.423Z"/><path class="c" d="M129.4,15.8c-.488-.012-.087.019.022.039.034.006-.335-.065-.333-.078.018-.12.471.275.179.069.547.386.3.271.2.154.432.493.271.387.182.234-.1-.169-.085-.328.125.31-.155-.471-.026.522.006.193.084-.855.048-1.741.075-2.6.062-1.906.159-3.813.2-5.72.008-.384.172-.179-.043.2a1.74,1.74,0,0,0,.1-.431c.022-.131.223-.488-.107.236a1.3,1.3,0,0,1,.125-.218c.014-.019-.358.407-.174.233s-.484.244-.111.079c-.551.244-.295.118-.15.067.376-.132-.014.019-.109.009.1.011.23,0,.338,0,.23.006.46.015.691.023l4.593.149,4.172.136a.954.954,0,0,0,.226.007.335.335,0,0,1,.063,0c-.659.05-.1-.113-.075-.01l.161.048-.287-.117c.345.168-.091-.083-.142-.13.278.256-.1-.154-.121-.189.278.391-.127.031-.021-.14a3,3,0,0,0,.117.428c-.021-.021-.033-.652-.049-.353,0,.052.01.107.008.159q-.019.7-.041,1.4-.1,3.26-.205,6.52c-.01.319-.157.99.043.058-.057.266-.213.448.115-.156a1.738,1.738,0,0,1-.1.174l.247-.318c-.125.121-.1.109.071-.033.355-.25-.2-.039.2-.11s.013,0-.071,0c-.322.028.456.024.085-.012-.11-.011-.237,0-.347,0-.178,0-.356-.011-.533-.017l-9.328-.3a2.42,2.42,0,0,0-2.4,2.4,2.45,2.45,0,0,0,2.4,2.4l9.41.306a5.4,5.4,0,0,0,3.159-.638A4.066,4.066,0,0,0,143.8,17c.168-2.176.139-4.385.208-6.566a10.114,10.114,0,0,0-.155-3.239A4.246,4.246,0,0,0,140.7,4.224a28.6,28.6,0,0,0-4.854-.249L130.523,3.8a5.737,5.737,0,0,0-2.967.488,4.369,4.369,0,0,0-2.162,2.985,17.619,17.619,0,0,0-.2,2.913q-.079,2.256-.153,4.512a9.839,9.839,0,0,0,.124,3.149A4.229,4.229,0,0,0,129.4,20.6a2.421,2.421,0,0,0,2.4-2.4,2.446,2.446,0,0,0-2.4-2.4Z"/><path class="d" d="M70.491,4.212a11.153,11.153,0,0,0-2.449.276,16.443,16.443,0,0,0-5.649,2.249,27.491,27.491,0,0,0-5.58,4.486,3.9,3.9,0,0,0-2.752-.785,5.741,5.741,0,0,0-2.6,1.364C47.785,15.008,45.486,21.791,49,31.976a12.069,12.069,0,0,0,2.7,5.03c.751-.866,3.136-2.013,5.212-2.856,4.716-1.914,5.837-5.409,8.34-8.961a2,2,0,0,1,1-.861,2.459,2.459,0,0,1,1.146.071c3.754.754,7.664-1.018,10.39-3.706.158-.155.313-.314.464-.475a33.855,33.855,0,0,0,5.573-9.052,30.18,30.18,0,0,0-5.694-4.772C76.191,4.73,72.989,4.174,70.491,4.212Z"/><path class="e" d="M78.245,20.218c-.151.161-.306.32-.464.475-2.726,2.688-6.636,4.46-10.39,3.706a2.459,2.459,0,0,0-1.146-.071,2,2,0,0,0-1,.861c-2.5,3.552-3.624,7.047-8.34,8.961-2.555,1.037-5.578,2.535-5.444,3.407a10.6,10.6,0,0,0,5.778,7.593A20.55,20.55,0,0,0,66.262,47a37.056,37.056,0,0,0,9.829-1.634l3.652-1.128a23.864,23.864,0,0,0,11.708-12.7,23.829,23.829,0,0,0-1.166-19.454C89.217,10.069,86.729,8,84.951,9.428a4.3,4.3,0,0,0-1.073,1.608A34.241,34.241,0,0,1,78.245,20.218Z"/><path class="c" d="M76.548,18.521a11.759,11.759,0,0,1-5.15,3.316,7.666,7.666,0,0,1-3.033.3c-1.427-.168-2.594-.432-3.876.441-1.631,1.111-2.579,3.391-3.628,5.015a10.94,10.94,0,0,1-3.555,3.7c-1.94,1.139-4.158,1.708-6.032,2.988a5.561,5.561,0,0,0-1.837,1.8,4.551,4.551,0,0,0,.077,3.63,13.782,13.782,0,0,0,8.693,8.444c4.616,1.634,9.62,1.439,14.365.554,4.264-.8,8.643-2.078,12.146-4.7A26.151,26.151,0,0,0,95.047,18.967c-.672-4.476-2.9-11.888-8.362-12.376-3.277-.292-4.511,2.526-5.72,5a28.575,28.575,0,0,1-4.417,6.934c-2.088,2.271,1.3,5.674,3.394,3.394a38.292,38.292,0,0,0,6.009-9.668c.082-.171.282-.82.45-.895.127-.057-.038.015-.034.015.291-.044.99.722,1.187.948a12.349,12.349,0,0,1,2.086,4.462,21.272,21.272,0,0,1-3.423,19.2A19.362,19.362,0,0,1,78.8,42.02a37.622,37.622,0,0,1-9.691,2.388c-5.311.574-13.307-.117-15.08-6.338a2.582,2.582,0,0,0-.14-.565q-.09-.64-.264.5-.49,1.005-.147.614c.007,0,.6-.444.62-.456a23.254,23.254,0,0,1,2.351-1.22,22.019,22.019,0,0,0,5.1-2.8,17.107,17.107,0,0,0,3.369-3.985c.428-.655.831-1.326,1.246-1.989.321-.514.8-1.542,1.294-1.765l-1.211.328c1.128-.136,2.321.3,3.484.229a13,13,0,0,0,3.88-.807,17.306,17.306,0,0,0,6.333-4.235C82.08,19.685,78.691,16.286,76.548,18.521Z"/><path class="c" d="M51.312,31.338a26.485,26.485,0,0,1-1.636-9.674,13.349,13.349,0,0,1,.589-3.527c.082-.276.176-.548.271-.819.04-.114.083-.227.127-.338-.037.095-.165.357.034-.078a12.664,12.664,0,0,1,.739-1.39c.132-.213.274-.419.415-.626.318-.469-.062.043.2-.255a9.6,9.6,0,0,1,1.038-1.067,5.242,5.242,0,0,1,1.453-.773c.3-.129-.48-.072.036,0,.31.045-.557-.173.016.012.09.029.63.214.252.067s.2.105.272.145c.36.19.7.41,1.044.633.859.563,1.689,1.168,2.551,1.726a22.914,22.914,0,0,0,9.08,3.533,2.478,2.478,0,0,0,2.952-1.677,2.417,2.417,0,0,0-1.676-2.952,19.457,19.457,0,0,1-8.228-3.241c-1.648-1.088-3.306-2.546-5.3-2.931-3.152-.607-5.891,1.735-7.646,4.1a16.47,16.47,0,0,0-2.882,7.88,28.647,28.647,0,0,0,1.673,12.527,2.458,2.458,0,0,0,2.953,1.677,2.424,2.424,0,0,0,1.676-2.953Z"/><path class="c" d="M63.605,8.809a18.065,18.065,0,0,1,1.832-1.015c.341-.164-.523.19.09-.042.131-.049.26-.1.391-.147.344-.125.692-.236,1.043-.34.677-.2,1.365-.4,2.058-.538a1.294,1.294,0,0,1,.37-.065c-.089-.028-.515.054-.155.024.3-.025.59-.052.887-.064a16,16,0,0,1,1.779.03c.174.013.347.028.52.046.217.023.444.065.1.008.318.052.635.107.949.176a11.336,11.336,0,0,1,1.934.591c-.315-.132-.088-.036.089.059.15.081.3.157.449.244.115.068.225.147.342.213.539.306-.324-.289.146.1a2.468,2.468,0,0,0,3.394,0,2.419,2.419,0,0,0,0-3.394C74.664.407,66.558,1.268,61.182,4.665a2.4,2.4,0,1,0,2.423,4.144Z"/><path class="f" d="M47.2,44.224a11.047,11.047,0,0,0,1.35-.829,11.851,11.851,0,0,0,4.284-5.83,11.087,11.087,0,0,0-.634-8.9c-.491-.858-3.04-4.447-7.38-4.744a14.292,14.292,0,0,0-5.076.06,27.292,27.292,0,0,0-5.8,1.556A10.92,10.92,0,0,0,29.37,28.5a9.376,9.376,0,0,0-1.918,7.287,11.548,11.548,0,0,0,4.819,7.894c3.424,2.4,7.07,2.107,9.342,1.923A13.915,13.915,0,0,0,47.2,44.224Z"/><path class="c" d="M48.411,46.3a14.457,14.457,0,0,0,7.463-13.244A12.223,12.223,0,0,0,45.035,21.533a23.327,23.327,0,0,0-10.509,1.255c-3.412,1.156-6.791,2.9-8.412,6.316-2.445,5.146-.847,11.488,3.261,15.293a14.144,14.144,0,0,0,8.535,3.667,20.417,20.417,0,0,0,10.5-1.768,2.423,2.423,0,0,0,.861-3.284,2.45,2.45,0,0,0-3.283-.861,15.343,15.343,0,0,1-6.716,1.168,11.017,11.017,0,0,1-3.3-.459,8.03,8.03,0,0,1-1.724-.766c-.188-.11-1.36-.965-.717-.442a9.258,9.258,0,0,1-3.7-8.535,6.7,6.7,0,0,1,4.392-5.138,22.927,22.927,0,0,1,8.1-1.859,9.154,9.154,0,0,1,5.933,1.657,9.779,9.779,0,0,1,.97.918c.112.119.784.959.451.5a7.314,7.314,0,0,1,1.194,2.553,9.551,9.551,0,0,1-.436,5.423c-.029.091-.239.606-.03.115-.094.221-.2.439-.308.653a10.792,10.792,0,0,1-.928,1.536,9.445,9.445,0,0,1-3.18,2.674C43.27,43.621,45.691,47.766,48.411,46.3Z"/><path class="c" d="M37.044,33.707c.633.321,1.23.706,1.859,1.032a2.486,2.486,0,0,0,1.849.242,2.582,2.582,0,0,0,1.434-1.1c.408-.641.853-1.263,1.288-1.886a1.794,1.794,0,0,0,.285-.892,1.823,1.823,0,0,0-.043-.957,2.7,2.7,0,0,0-1.1-1.435,2.427,2.427,0,0,0-1.849-.242l-.574.242a2.432,2.432,0,0,0-.861.861c-.435.624-.879,1.245-1.287,1.887l3.283-.861c-.628-.327-1.225-.712-1.858-1.032a1.774,1.774,0,0,0-.892-.285,2.158,2.158,0,0,0-1.773.472,1.809,1.809,0,0,0-.619.674,2.422,2.422,0,0,0-.241,1.849,2.392,2.392,0,0,0,1.1,1.434Z"/><path class="g" d="M108.6,34.471a22.245,22.245,0,0,1-13.972,13.9,29.729,29.729,0,0,1-17.517.567,7.44,7.44,0,0,1-2.76-1.191,2.953,2.953,0,0,1-1.221-2.62,3.211,3.211,0,0,1,2.253-2.352,18.8,18.8,0,0,1,3.369-.583,16.4,16.4,0,0,0,9.007-5.036A29.2,29.2,0,0,0,94.8,24.986c1.2-4.12,1.94-8.712,4.933-12a11.774,11.774,0,0,1,6.534-2.743l.674.206c3.99,1.356,4.1,8.5,3.944,12.245A39.042,39.042,0,0,1,108.6,34.471Z"/><path class="c" d="M106.287,33.833c-2.343,7.018-8.63,11.67-15.708,13.2a27.683,27.683,0,0,1-12.828-.41c-.531-.141-3.1-.8-1.787-1.495a7.138,7.138,0,0,1,2.366-.477,16.282,16.282,0,0,0,3.4-.74c8.013-2.824,13.346-10.98,15.545-18.849.974-3.487,1.595-7.724,4.218-10.436.315-.326-.021-.034.32-.266a11.437,11.437,0,0,1,1.033-.616,10.655,10.655,0,0,1,2.1-.864c.22-.064.652-.152.76-.205.281-.136.362-.033,0-.089a1.247,1.247,0,0,1,.267.081c.47.212.471.121.822.457a6.859,6.859,0,0,1,1.423,3.49,24.411,24.411,0,0,1,.312,4.609,41.713,41.713,0,0,1-2.233,12.613c-.948,2.947,3.685,4.209,4.629,1.276a46.314,46.314,0,0,0,2.4-13.627c.051-3.39-.139-7.322-1.987-10.28a7.025,7.025,0,0,0-3.991-3.136c-1.915-.558-3.943.18-5.7.948a10.819,10.819,0,0,0-4.5,3.376,20.737,20.737,0,0,0-3.11,6.405c-.7,2.231-1.173,4.53-1.919,6.748A26.8,26.8,0,0,1,89.079,31.7c-2.463,3.75-6,7.25-10.565,8.1-2.377.445-4.793.448-6.527,2.414a5.029,5.029,0,0,0,.526,7.1c1.848,1.693,4.617,2.192,7.011,2.578a33.608,33.608,0,0,0,7.739.412c10.541-.754,20.227-6.936,23.653-17.2C111.9,32.172,107.262,30.912,106.287,33.833Z"/><path class="c" d="M105.837,2.956c-.473,1.956-.918,3.92-1.392,5.876a2.522,2.522,0,0,0,.242,1.85,2.4,2.4,0,0,0,4.387-.574c.473-1.956.919-3.92,1.392-5.876a2.521,2.521,0,0,0-.242-1.85,2.4,2.4,0,0,0-4.387.574Z"/><path class="c" d="M101.545,4.686a47.078,47.078,0,0,0,11.641,1,2.437,2.437,0,0,0,2.4-2.4,2.434,2.434,0,0,0-2.4-2.4,44.22,44.22,0,0,1-5.424-.1q-.69-.055-1.378-.133-.317-.036-.634-.077c.435.054-.034-.005-.2-.03-.913-.135-1.821-.3-2.723-.491a2.445,2.445,0,0,0-2.953,1.676,2.435,2.435,0,0,0,1.676,2.952Z"/><path class="b" d="M36.66,234.568a10.86,10.86,0,0,0-9.233,2.417,10.291,10.291,0,0,0-3.04,9.874,10.787,10.787,0,0,0,8.467,7.8c.541.109,6.047,1.133,9.742-2.772,3.518-3.716,3.3-9.688.545-13.4A10.626,10.626,0,0,0,36.66,234.568Z"/><path class="b" d="M131.426,234.568a10.86,10.86,0,0,0-9.233,2.417,10.291,10.291,0,0,0-3.04,9.874,10.787,10.787,0,0,0,8.467,7.8c.542.109,6.047,1.133,9.743-2.772,3.517-3.716,3.3-9.688.544-13.4A10.624,10.624,0,0,0,131.426,234.568Z"/><path class="b" d="M16.7,117.039c2.148,10.133,3.5,16.653,3.068,15.3l132.016.015c6.152-31.872,13-67.651,18.272-95.977-5.848.3-10.253.521-10.253.521-17.621.2-135.362,7.143-155.78,8.3a1.729,1.729,0,0,0-1.62,2.02C5.028,62.422,12.429,96.881,16.7,117.039Z"/><path class="h" d="M139.952,193.254c-1.1,5.642-2,10.22-2.627,13.452a1.332,1.332,0,0,1-1.316,1.08c-25.219,0-86.388,0-116.234,0a5.994,5.994,0,0,0-5.995,5.973l-.016,3.971a5.992,5.992,0,0,0,5.994,6.021c28.067,0,84.777.013,123.252.01a8.309,8.309,0,0,0,8.162-6.722c6.836-34.993,28.106-144.156,36.149-189.734a7.07,7.07,0,0,1,6.964-5.837c8.641,0,8.7,0,13.012,0a6,6,0,0,0,6-6.037c-.006-1.063-.013-2.131-.019-3.183a6,6,0,0,0-6-5.964c-7.322,0-12.891,0-24.637-.008a8.463,8.463,0,0,0-8.339,6.954c-5.347,29.682-14.525,77.705-22.52,119.127l-132.123-.014a5.986,5.986,0,0,0-5.988,5.968l-.014,3.356a5.987,5.987,0,0,0,5.987,6.016c34.121,0,111.776.007,129.176.008C145.322,165.726,142.205,181.716,139.952,193.254Z"/><path class="c" d="M37.3,232.254a13.07,13.07,0,0,0-13.257,4.989A12.536,12.536,0,0,0,25.7,253.6a14.145,14.145,0,0,0,11.825,3.452,12.033,12.033,0,0,0,10.1-12,12.9,12.9,0,0,0-10.325-12.8,2.461,2.461,0,0,0-2.953,1.676,2.423,2.423,0,0,0,1.677,2.952,12.4,12.4,0,0,1,1.863.527c.68.252-.412-.212.284.12.229.11.454.224.675.347a10.332,10.332,0,0,1,1.111.728,7.894,7.894,0,0,1,2.772,5,8.23,8.23,0,0,1-.84,5.212,6.888,6.888,0,0,1-4.22,3.305c-.238.067-.479.125-.721.175-.036.008-.814.141-.291.068a10.525,10.525,0,0,1-1.08.086c-.145,0-1.978-.14-2.008-.081.05-.1.671.123.221.027-.069-.014-.14-.023-.21-.036-.267-.05-.531-.114-.793-.185a8.108,8.108,0,0,1-5.6-10.84,7.713,7.713,0,0,1,5.062-4.3,7.169,7.169,0,0,1,2.581-.265c.337.01.671.051,1.008.071.5.03-.552-.158-.144-.018a2.509,2.509,0,0,0,.327.057,2.463,2.463,0,0,0,2.952-1.676A2.422,2.422,0,0,0,37.3,232.254Z"/><path class="c" d="M132.064,232.254a13.07,13.07,0,0,0-13.257,4.989,12.536,12.536,0,0,0,1.655,16.358,14.145,14.145,0,0,0,11.825,3.452,12.033,12.033,0,0,0,10.1-12,12.9,12.9,0,0,0-10.325-12.8,2.46,2.46,0,0,0-2.952,1.676,2.422,2.422,0,0,0,1.676,2.952,12.4,12.4,0,0,1,1.863.527c.681.252-.412-.212.285.12.228.11.453.224.674.347a10.332,10.332,0,0,1,1.111.728,7.9,7.9,0,0,1,2.773,5,8.231,8.231,0,0,1-.841,5.212,6.888,6.888,0,0,1-4.22,3.305c-.238.067-.479.125-.721.175-.036.008-.814.141-.291.068a10.525,10.525,0,0,1-1.08.086c-.145,0-1.977-.14-2.008-.081.05-.1.672.123.221.027-.069-.014-.14-.023-.21-.036-.266-.05-.531-.114-.793-.185a8.108,8.108,0,0,1-5.6-10.84,7.713,7.713,0,0,1,5.062-4.3,7.169,7.169,0,0,1,2.581-.265c.338.01.672.051,1.008.071.5.03-.552-.158-.144-.018a2.539,2.539,0,0,0,.327.057,2.463,2.463,0,0,0,2.952-1.676A2.421,2.421,0,0,0,132.064,232.254Z"/><path class="c" d="M21.843,129.968c-2.275-11.585-4.861-23.112-7.3-34.663-3.09-14.618-6.216-29.237-8.952-43.927q-.36-1.927-.7-3.86a2.793,2.793,0,0,0-.083-.475c-.089-.239.068-.238-.021-.166.018-.015-.479.735-.461.684-.058.17-.3-.059.008.017A5.153,5.153,0,0,0,5.636,47.5l7.114-.41q10.653-.617,21.307-1.231,29.181-1.682,58.365-3.3c20.88-1.154,41.768-2.426,62.669-3.141,1.572-.054,3.145-.1,4.718-.12,3.087-.034,3.095-4.834,0-4.8-9.493.1-19,.717-28.475,1.191q-16.454.823-32.9,1.739-29.964,1.642-59.921,3.38-11.593.666-23.186,1.338L7.4,42.6l-2.873.165c-2.513.144-4.68,1.7-4.513,4.449a36.915,36.915,0,0,0,.748,4.339q.414,2.253.847,4.5.979,5.1,2.01,10.185,2.4,11.888,4.909,23.75c2.731,12.988,5.567,25.955,8.23,38.957q.234,1.146.462,2.295a2.424,2.424,0,0,0,2.952,1.676,2.448,2.448,0,0,0,1.676-2.952Z"/><path class="c" d="M124.5,119.9c2.558-18.15,5.375-36.263,8.333-54.352q1.1-6.745,2.23-13.487a2.472,2.472,0,0,0-1.676-2.952,2.42,2.42,0,0,0-2.953,1.676c-2.865,17.168-5.636,34.353-8.2,51.569q-1.212,8.13-2.361,16.27a2.482,2.482,0,0,0,1.677,2.952A2.417,2.417,0,0,0,124.5,119.9Z"/><path class="c" d="M37.179,57.192C39.841,73.04,42.42,88.9,44.8,104.794q1.131,7.539,2.2,15.089a2.416,2.416,0,0,0,2.953,1.676,2.464,2.464,0,0,0,1.676-2.952C49.251,101.786,46.621,85,43.859,68.241q-1.015-6.163-2.052-12.325a2.419,2.419,0,0,0-2.952-1.676,2.455,2.455,0,0,0-1.676,2.952Z"/><path class="c" d="M98.384,119.245c1.2-17.387,2.551-34.764,3.8-52.147q.5-7,.984-13.995a2.4,2.4,0,0,0-4.8,0c-1.284,18.941-2.724,37.872-4.109,56.806-.228,3.112-.459,6.223-.674,9.336a2.422,2.422,0,0,0,2.4,2.4,2.447,2.447,0,0,0,2.4-2.4Z"/><path class="c" d="M66.818,54.857c1.228,18.378,2.62,36.747,3.967,55.117q.339,4.635.677,9.271a2.457,2.457,0,0,0,2.4,2.4,2.421,2.421,0,0,0,2.4-2.4c-1.229-17.087-2.512-34.17-3.729-51.258q-.468-6.564-.915-13.13a2.456,2.456,0,0,0-2.4-2.4,2.421,2.421,0,0,0-2.4,2.4Z"/><path class="c" d="M33.477,100.419,113.539,98.1l22.625-.655c3.082-.089,3.095-4.889,0-4.8L57.227,94.932l-23.75.687c-3.082.089-3.095,4.89,0,4.8Z"/><path class="c" d="M24.553,77.788q23.718-1,47.431-2.143,22.529-1.065,45.057-2.127,13.077-.6,26.156-1.156c3.077-.13,3.094-4.93,0-4.8q-22.827.965-45.646,2.068Q74.777,70.709,52,71.778q-13.724.628-27.448,1.21c-3.078.13-3.094,4.931,0,4.8Z"/><path class="c" d="M137.638,192.616q-1.028,5.263-2.056,10.527l-.374,1.914c-.035.182-.237.705-.17.871.22.547.821-.839.971-.542a2.378,2.378,0,0,0-.414,0,23.066,23.066,0,0,0-2.844,0H25.449a43.192,43.192,0,0,0-7.151.146,8.448,8.448,0,0,0-6.6,5.947,19.819,19.819,0,0,0-.332,5.375,10.037,10.037,0,0,0,.958,4.795,8.55,8.55,0,0,0,7.68,4.5c2.264.019,4.529,0,6.793,0l34.382,0,40.277,0q19.322,0,38.642,0c3.128,0,6.192.045,8.882-1.823a11.141,11.141,0,0,0,4.612-7.217q.921-4.707,1.838-9.415,2.445-12.531,4.88-25.065,2.988-15.381,5.961-30.765,3.267-16.917,6.512-33.838t6.447-33.828q2.921-15.432,5.789-30.875,2.313-12.483,4.542-24.981c.43-2.389,1.928-4.39,4.545-4.482,2.7-.094,5.414,0,8.115,0,1.57,0,3.141,0,4.712,0a8.607,8.607,0,0,0,7.731-4.368,9.641,9.641,0,0,0,1.027-4.753,15.108,15.108,0,0,0-.521-5.306,8.533,8.533,0,0,0-7.54-5.547c-2.525-.15-5.1-.011-7.631-.012l-8.351,0-5.04,0a37.34,37.34,0,0,0-5.813.17,10.885,10.885,0,0,0-7.488,5.111c-1.458,2.419-1.67,5.392-2.165,8.116q-.78,4.282-1.568,8.563-3.684,20.012-7.489,40-4.218,22.265-8.5,44.516-2.053,10.683-4.115,21.365l2.314-1.762-54.875-.006-64.768-.007c-4.252,0-8.573-.224-12.82.008a8.473,8.473,0,0,0-7.145,4.6,9.5,9.5,0,0,0-.9,4.231,18.5,18.5,0,0,0,.3,5.17,8.455,8.455,0,0,0,6.109,5.893,27.971,27.971,0,0,0,6.112.234H36.327l61.108,0,48.384,0h3l-2.314-3.038q-4.423,22.787-8.871,45.567a2.463,2.463,0,0,0,1.676,2.952,2.423,2.423,0,0,0,2.953-1.676q4.446-22.78,8.871-45.567a2.435,2.435,0,0,0-2.315-3.038l-42.4,0-60.434,0h-25c-1.941,0-3.862-.18-4.693-2.266-.482-1.208-.228-2.722-.223-3.992a4.39,4.39,0,0,1,.738-2.891c1.326-1.719,3.456-1.391,5.372-1.391H28.4l62.108.006,56.546.006h4.736a2.427,2.427,0,0,0,2.314-1.762q8.282-42.906,16.381-85.847,1.728-9.224,3.433-18.451.786-4.262,1.564-8.524.35-1.921.7-3.842a20.031,20.031,0,0,1,.811-3.856,6.172,6.172,0,0,1,5.658-3.8c3.481-.08,6.974,0,10.456,0l7.939,0h3.526a12.8,12.8,0,0,1,3.774.159c2.889.929,2.668,4.1,2.558,6.589-.1,2.352-1.833,3.626-4.08,3.638-4.014.02-8.029-.019-12.043,0a9.828,9.828,0,0,0-8.349,4.193c-1.343,1.957-1.574,4.3-1.979,6.571q-1.054,5.912-2.137,11.819-5.52,30.2-11.329,60.346-6.222,32.616-12.55,65.213-4.674,24.118-9.385,48.231c-.436,2.232-1.192,4.166-3.333,5.272-2.282,1.178-5.395.648-7.881.648q-9.243,0-18.486,0l-39.286,0-37.446,0-15.673,0c-2.228,0-4.457.007-6.685,0-2.057-.006-3.853-1.09-4.082-3.28a22.281,22.281,0,0,1,.009-4.676,3.7,3.7,0,0,1,1.693-2.668,4.988,4.988,0,0,1,2.884-.541h87.427c9.128,0,18.283.2,27.409,0a3.913,3.913,0,0,0,3.949-2.543,29.6,29.6,0,0,0,.767-3.736l1.956-10.015a2.462,2.462,0,0,0-1.677-2.952A2.422,2.422,0,0,0,137.638,192.616Z"/><path class="c" d="M14.682,31.483a8.7,8.7,0,0,1,1.509-4.924,4.514,4.514,0,0,1,3.522-1.746,2.47,2.47,0,0,0,2.314-1.762A8.441,8.441,0,0,1,33.2,17.317a2.423,2.423,0,0,0,2.953-1.676,2.452,2.452,0,0,0-1.677-2.953A13.283,13.283,0,0,0,17.4,21.775l2.314-1.762A9.66,9.66,0,0,0,12.7,23.282a13.611,13.611,0,0,0-2.822,8.2,2.4,2.4,0,1,0,4.8,0Z"/></svg>